PathFileType	4	(X/Y/Z)	/Users/guillermo/Documents/TESIS/Procesamiento_videos/data/sports2d_raw/Cam1_rep/sujeto01_caml/sujeto01_rep09_camL_Sports2D/sujeto01_rep09_camL_Sports2D_px_person01.trc
DataRate	CameraRate	NumFrames	NumMarkers	Units	OrigDataRate	OrigDataStartFrame	OrigNumFrames
120.0	120.0	4	22	m	120.0	17	68
Frame#	Time	Hip			RHip			RKnee			RAnkle			RBigToe			RSmallToe			RHeel			LHip			LKnee			LAnkle			LBigToe			LSmallToe			LHeel			Neck			Head			Nose			RShoulder			RElbow			RWrist			LShoulder			LElbow			LWrist			
		X1	Y1	Z1	X2	Y2	Z2	X3	Y3	Z3	X4	Y4	Z4	X5	Y5	Z5	X6	Y6	Z6	X7	Y7	Z7	X8	Y8	Z8	X9	Y9	Z9	X10	Y10	Z10	X11	Y11	Z11	X12	Y12	Z12	X13	Y13	Z13	X14	Y14	Z14	X15	Y15	Z15	X16	Y16	Z16	X17	Y17	Z17	X18	Y18	Z18	X19	Y19	Z19	X20	Y20	Z20	X21	Y21	Z21	X22	Y22	Z22
17	0.14166666666666666	1006.5322265625	431.876953125	0.0	1015.453125	434.42578125	0.0	964.4765625	535.1044921875	0.0	938.98828125	629.4111328125	0.0	917.3232421875	645.978515625	0.0	922.4208984375	640.880859375	0.0	945.3603515625	643.4296875	0.0	1000.16015625	430.6025390625	0.0	984.8671875	546.57421875	0.0	993.7880859375	659.9970703125	0.0	961.927734375	689.30859375	0.0	972.123046875	689.30859375	0.0	1007.806640625	667.6435546875	0.0	969.57421875	304.435546875	0.0	953.0068359375	277.6728515625	0.0	935.1650390625	315.9052734375	0.0	1002.708984375	327.375	0.0	1016.7275390625	393.64453125	0.0	983.5927734375	458.6396484375	0.0	953.0068359375	308.2587890625	0.0	895.658203125	351.5888671875	0.0	843.4072265625	383.44921875	0.0
18	0.15	1003.6490478515625	433.76422119140625	0.0	1014.919189453125	438.27227783203125	0.0	960.822509765625	537.4495239257812	0.0	934.9011840820312	636.6267700195312	0.0	913.4879150390625	659.1670532226562	0.0	921.3770141601562	655.7860107421875	0.0	938.2822265625	652.4049682617188	0.0	992.37890625	434.8912353515625	0.0	982.2357788085938	550.9736938476562	0.0	988.9978637695312	662.548095703125	0.0	961.9495239257812	695.2315063476562	0.0	968.7116088867188	695.2315063476562	0.0	1000.2680053710938	673.8182373046875	0.0	968.7116088867188	309.79266357421875	0.0	948.4253540039062	283.871337890625	0.0	933.774169921875	321.06280517578125	0.0	1004.7760620117188	335.7139892578125	0.0	1014.919189453125	412.3509521484375	0.0	1016.0462036132812	485.60687255859375	0.0	951.806396484375	313.1737060546875	0.0	898.8367309570312	359.38128662109375	0.0	852.629150390625	395.44573974609375	0.0
19	0.15833333333333333	999.6470947265625	441.37646484375	0.0	1012.2813720703125	443.482177734375	0.0	961.7442626953125	546.662109375	0.0	932.2642822265625	642.4720458984375	0.0	904.8900146484375	663.5291748046875	0.0	916.471435546875	661.4234619140625	0.0	936.4757080078125	656.1591796875	0.0	985.9599609375	440.3236083984375	0.0	979.642822265625	551.9263916015625	0.0	987.0128173828125	668.79345703125	0.0	957.5328369140625	705.6434326171875	0.0	965.9556884765625	704.590576171875	0.0	997.5413818359375	681.427734375	0.0	967.008544921875	315.03369140625	0.0	948.05712890625	289.76513671875	0.0	929.105712890625	323.45654296875	0.0	1004.911376953125	343.4608154296875	0.0	1022.8099365234375	419.2664794921875	0.0	1025.968505859375	486.6492919921875	0.0	949.1099853515625	318.1922607421875	0.0	901.7314453125	367.676513671875	0.0	859.6171875	408.7379150390625	0.0
20	0.16666666666666666	992.158447265625	447.4716796875	0.0	1006.872802734375	448.522705078125	0.0	962.729736328125	554.67626953125	0.0	930.14794921875	650.319580078125	0.0	898.6171875	679.748291015625	0.0	904.92333984375	675.544189453125	0.0	934.35205078125	668.18701171875	0.0	980.59716796875	446.420654296875	0.0	976.39306640625	557.829345703125	0.0	982.69921875	672.39111328125	0.0	950.117431640625	712.330078125	0.0	959.57666015625	711.279052734375	0.0	993.20947265625	685.00341796875	0.0	965.8828125	320.297607421875	0.0	946.96435546875	294.02197265625	0.0	928.0458984375	324.501708984375	0.0	1003.7197265625	348.67529296875	0.0	1024.740234375	425.400146484375	0.0	1029.995361328125	492.665771484375	0.0	949.06640625	323.45068359375	0.0	905.974365234375	376.001953125	0.0	866.035400390625	418.04296875	0.0
